<svg width="20" height="22" viewBox="0 0 20 22" fill="none" xmlns="http://www.w3.org/2000/svg">
<path d="M15.7499 3.09003L13.2199 5.03003L14.1299 8.09003L11.4999 6.28003L8.86995 8.09003L9.77995 5.03003L7.24995 3.09003L10.4399 3.00003L11.4999 3.05176e-05L12.5599 3.00003L15.7499 3.09003ZM19.2499 10L17.6099 11.25L18.1999 13.23L16.4999 12.06L14.7999 13.23L15.3899 11.25L13.7499 10L15.8099 9.95003L16.4999 8.00003L17.1899 9.95003L19.2499 10ZM16.9699 14.95C17.7999 14.87 18.6899 16.05 18.1599 16.8C17.8399 17.25 17.4999 17.67 17.0799 18.07C13.1699 22 6.83995 22 2.93995 18.07C-0.970054 14.17 -0.970054 7.83003 2.93995 3.93003C3.33995 3.53003 3.75995 3.17003 4.20995 2.85003C4.95995 2.32003 6.13995 3.21003 6.05995 4.04003C5.78995 6.90003 6.74995 9.87003 8.94995 12.06C11.1399 14.26 14.0999 15.22 16.9699 14.95Z" fill="white"/>
</svg>
