<svg width="24" height="19" viewBox="0 0 24 19" fill="none" xmlns="http://www.w3.org/2000/svg">
<path d="M5.00389 12.1696C4.7892 12.2452 4.58569 12.3445 4.39652 12.4644C3.55446 12.116 2.76574 11.5977 2.08217 10.9094C-0.693568 8.14304 -0.693568 3.64591 2.08217 0.879534C2.36613 0.595803 2.66429 0.340446 2.98375 0.113461C3.51618 -0.262482 4.35388 0.368819 4.29708 0.95756C4.10541 2.98623 4.78692 5.09293 6.34872 6.64636C6.9448 7.24467 7.62123 7.71369 8.34362 8.05381C6.44693 8.3671 5.00037 10.0147 5.00037 12.0002C5.00037 12.0569 5.00155 12.1134 5.00389 12.1696Z" fill="white"/>
<path d="M10.5336 3.46185L11.0604 5.20843C11.0084 5.25013 10.9573 5.29275 10.9069 5.33627L9.3716 4.29449L7.5948 5.50015L8.20959 3.46185L6.50035 2.16959L8.65547 2.10964L9.3716 0.11131L10.0877 2.10964L12.2428 2.16959L10.5336 3.46185Z" fill="white"/>
<path d="M16.6081 2.27618L17.7161 1.44354L16.3244 1.41023L15.8582 0.111315L15.3921 1.41023L14.0003 1.44354L15.1083 2.27618L14.7097 3.59508L15.8582 2.81573L17.0067 3.59508L16.6081 2.27618Z" fill="white"/>
<path d="M7.00037 19.0002H20.0004C22.2095 19.0002 24.0004 17.2093 24.0004 15.0002C24.0004 13.124 22.7087 11.5495 20.9661 11.1175C20.9887 10.9149 21.0004 10.7089 21.0004 10.5002C21.0004 7.46259 18.5379 5.00015 15.5004 5.00015C12.9809 5.00015 10.8571 6.69418 10.2059 9.00534C10.1378 9.0019 10.0693 9.00015 10.0004 9.00015C7.79123 9.00015 6.00037 10.791 6.00037 13.0002C6.00037 13.0569 6.00155 13.1134 6.00389 13.1696C4.83685 13.5805 4.00037 14.6926 4.00037 16.0002C4.00037 17.657 5.34351 19.0002 7.00037 19.0002Z" fill="white"/>
</svg>
