<svg width="24" height="23" viewBox="0 0 24 23" fill="none" xmlns="http://www.w3.org/2000/svg">
<path d="M3.83331 16.8333H19C21.5773 16.8333 23.6666 14.744 23.6666 12.1667C23.6666 9.97782 22.1597 8.14094 20.1267 7.63692C20.1531 7.40048 20.1666 7.16016 20.1666 6.91667C20.1666 3.37284 17.2938 0.5 13.75 0.5C10.8106 0.5 8.33289 2.47637 7.57314 5.17272C7.49371 5.1687 7.41375 5.16667 7.33331 5.16667C4.75598 5.16667 2.66665 7.256 2.66665 9.83333C2.66665 9.89957 2.66803 9.96548 2.67076 10.031C1.30922 10.5104 0.333313 11.8079 0.333313 13.3333C0.333313 15.2663 1.90032 16.8333 3.83331 16.8333Z" fill="white" fill-opacity="0.6"/>
<path d="M6.65033 18C6.3539 18 6.0829 18.1675 5.95033 18.4326L4.39962 21.534C4.13944 22.0544 4.51784 22.6667 5.09962 22.6667C5.39606 22.6667 5.66705 22.4992 5.79962 22.234L7.35033 19.1326C7.61052 18.6123 7.23212 18 6.65033 18Z" fill="white" fill-opacity="0.6"/>
<path d="M10.1503 18C10.7321 18 11.1105 18.6123 10.8503 19.1326L9.29963 22.234C9.16705 22.4992 8.89606 22.6667 8.59962 22.6667C8.01784 22.6667 7.63944 22.0544 7.89962 21.534L9.45033 18.4326C9.5829 18.1675 9.8539 18 10.1503 18Z" fill="white" fill-opacity="0.6"/>
<path d="M17.1503 18C17.7321 18 18.1105 18.6123 17.8503 19.1326L16.2996 22.234C16.1671 22.4992 15.8961 22.6667 15.5996 22.6667C15.0178 22.6667 14.6394 22.0544 14.8996 21.534L16.4503 18.4326C16.5829 18.1675 16.8539 18 17.1503 18Z" fill="white" fill-opacity="0.6"/>
<path d="M13.6503 18C14.2321 18 14.6105 18.6123 14.3503 19.1326L12.7996 22.234C12.6671 22.4992 12.3961 22.6667 12.0996 22.6667C11.5178 22.6667 11.1394 22.0544 11.3996 21.534L12.9503 18.4326C13.0829 18.1675 13.3539 18 13.6503 18Z" fill="white" fill-opacity="0.6"/>
</svg>
