<svg width="24" height="23" viewBox="0 0 24 23" fill="none" xmlns="http://www.w3.org/2000/svg">
<path d="M15.5104 16.8333H19C21.5773 16.8333 23.6666 14.744 23.6666 12.1667C23.6666 9.97782 22.1597 8.14094 20.1267 7.63692C20.1531 7.40048 20.1666 7.16016 20.1666 6.91667C20.1666 3.37284 17.2938 0.5 13.75 0.5C10.8106 0.5 8.33289 2.47637 7.57314 5.17272C7.49371 5.1687 7.41375 5.16667 7.33331 5.16667C4.75598 5.16667 2.66665 7.256 2.66665 9.83333C2.66665 9.89957 2.66803 9.96548 2.67076 10.031C1.30922 10.5104 0.333313 11.8079 0.333313 13.3333C0.333313 15.2663 1.90032 16.8333 3.83331 16.8333H7.15627L12.1537 8.08784C12.7473 7.0491 14.3333 7.47029 14.3333 8.66667V13.3333H15.5C16.3958 13.3333 16.9574 14.3011 16.5129 15.0788L15.5104 16.8333Z" fill="white" fill-opacity="0.6"/>
<path d="M8.49998 16.8333L13.1666 8.66667V14.5H15.5L10.8333 22.6667V16.8333H8.49998Z" fill="white" fill-opacity="0.6"/>
</svg>
